<svg id="Layer_1" data-name="Layer 1" xmlns="http://www.w3.org/2000/svg" xmlns:xlink="http://www.w3.org/1999/xlink" viewBox="0 0 525.64 124.24"><defs><style>.cls-1{fill:#6d6e71;}.cls-2{fill:#e90e8b;}.cls-3{fill:url(#linear-gradient);}.cls-4{fill:url(#linear-gradient-2);}.cls-5{fill:url(#linear-gradient-3);}.cls-6{fill:url(#linear-gradient-4);}.cls-7{opacity:0.8;}.cls-8{fill:#fff;}</style><linearGradient id="linear-gradient" x1="118.74" y1="89.06" x2="180.02" y2="30.87" gradientUnits="userSpaceOnUse"><stop offset="0" stop-color="#a5306f"/><stop offset="0.73" stop-color="#e7048a"/><stop offset="0.79" stop-color="#ec008c"/></linearGradient><linearGradient id="linear-gradient-2" x1="101.44" y1="90.82" x2="28.18" y2="17.56" gradientUnits="userSpaceOnUse"><stop offset="0" stop-color="#039447"/><stop offset="0.9" stop-color="#ede80c"/></linearGradient><linearGradient id="linear-gradient-3" x1="91.87" y1="56.88" x2="149.82" y2="114.82" gradientUnits="userSpaceOnUse"><stop offset="0.01" stop-color="#2f2e7a"/><stop offset="0.43" stop-color="#1a68af"/><stop offset="0.9" stop-color="#00aeef"/></linearGradient><linearGradient id="linear-gradient-4" x1="77.68" y1="56.86" x2="19.72" y2="114.82" gradientUnits="userSpaceOnUse"><stop offset="0" stop-color="#f37021"/><stop offset="0.02" stop-color="#f37320"/><stop offset="0.22" stop-color="#f59815"/><stop offset="0.42" stop-color="#f6b50c"/><stop offset="0.61" stop-color="#f6ca05"/><stop offset="0.81" stop-color="#f7d601"/><stop offset="1" stop-color="#f7da00"/></linearGradient></defs><title>Jenzabar_Butterfly_Logo_Color_Horiz</title><path class="cls-1" d="M281.31,95.48H251.56c1.16,5.93,5.6,9.44,11.95,9.44a12.71,12.71,0,0,0,10.27-4.76l6.53,5.6c-3.44,4.44-8.53,7.69-17.31,7.69-12.37,0-21.14-8.28-21.14-21.07,0-12.54,8.54-21,20.49-21,11.44,0,19.22,8.62,19.21,20.48A28.49,28.49,0,0,1,281.31,95.48Zm-29.58-7.37h20.39c-1.17-4.93-4.51-8.28-9.86-8.28A10.31,10.31,0,0,0,251.73,88.11Z" transform="translate(-25.18 -20.3)"/><path class="cls-1" d="M289.16,72h9.36v5.6h.16a17.51,17.51,0,0,1,13.63-6.18c8.94,0,15,5.1,14.95,17.39v24h-9.36V91.23c0-8.61-3.25-11.37-8.85-11.37-6.35,0-10.54,4.43-10.54,12.45v20.47h-9.36Z" transform="translate(-25.18 -20.3)"/><path class="cls-1" d="M333.84,106.19l21-26-.09-.25H335.27V72h32.42v6.43l-21.15,26.23.09.17h20.72v7.94l-33.51,0Z" transform="translate(-25.18 -20.3)"/><path class="cls-1" d="M369.93,92.58c0-12.28,8.44-21.14,19.65-21.13,5.18,0,9.69,1.93,12.62,5.61l.16-.09V72h9.36v40.78h-8.94v-5.35l-.16-.08c-2.94,3.93-7.28,6.1-13,6.1C378.36,113.48,369.93,105.21,369.93,92.58Zm32.85.1c0-7.27-4.93-12.78-11.62-12.79-6.52,0-11.7,4.93-11.7,12.78,0,7.19,4.76,12.29,11.7,12.29C397.51,105,402.77,100,402.78,92.68Z" transform="translate(-25.18 -20.3)"/><path class="cls-1" d="M429.24,107.4h-.16v5.43h-8.94l0-61.51h9.36V76.9h.09c3.17-3.6,7.6-5.43,13-5.43,11.28,0,19.73,8.87,19.72,21.15,0,12.62-8.45,20.89-19.82,20.88C436.59,113.5,432.25,111.33,429.24,107.4Zm23.49-14.7c0-7.85-5.26-12.78-11.78-12.79-7,0-11.87,5.51-11.87,12.78S434.34,105,441,105C447.88,105,452.73,99.89,452.73,92.7Z" transform="translate(-25.18 -20.3)"/><path class="cls-1" d="M467.42,92.62c0-12.28,8.44-21.14,19.64-21.13,5.19,0,9.7,1.92,12.62,5.6l.17-.08V72.08h9.36l0,40.79h-8.94v-5.35l-.17-.08c-2.93,3.92-7.28,6.09-13,6.09C475.85,113.52,467.41,105.24,467.42,92.62Zm32.84.1c0-7.27-4.92-12.78-11.61-12.79-6.52,0-11.71,4.92-11.71,12.78,0,7.19,4.77,12.29,11.7,12.29C495,105,500.26,100.08,500.26,92.72Z" transform="translate(-25.18 -20.3)"/><path class="cls-1" d="M517.21,72.08h9.36v6.1h.17a15.65,15.65,0,0,1,12.62-6.68h1.17V82c-1.09-.08-2.18-.17-2.84-.17-7.11,0-11.13,5.1-11.13,11.78v19.31H517.2Z" transform="translate(-25.18 -20.3)"/><rect class="cls-2" x="199.88" y="31.07" width="10.1" height="10.1"/><path class="cls-1" d="M225.1,64.49V92.36c0,8.44-3.35,11.37-8,11.37-3.68,0-7.44-2.68-9.61-5.27l-5.69,7.35a20,20,0,0,0,15.71,7.44c12.87,0,17.73-7.76,17.73-20.8v-28Z" transform="translate(-25.18 -20.3)"/><path class="cls-1" d="M550.82,75.16a3.47,3.47,0,1,1-3.45-3.49A3.48,3.48,0,0,1,550.82,75.16Zm-.66,0a2.81,2.81,0,1,0-2.8,2.84A2.8,2.8,0,0,0,550.16,75.16Zm-2.25.4,1,1.42h-.7l-.92-1.36h-.54V77h-.58V73.29h1.33a1.09,1.09,0,0,1,1.23,1.17A1,1,0,0,1,547.91,75.56Zm-1.17-.48h.62c.54,0,.76-.28.76-.64s-.26-.6-.72-.6h-.66Z" transform="translate(-25.18 -20.3)"/><path class="cls-3" d="M110.94,83.28h61.24l9-5.69,13.47-57s-25-2-49.2,5.62C126.94,32,114.67,44.57,110,50.16V76.29Z" transform="translate(-25.18 -20.3)"/><path class="cls-4" d="M110,76.29V50.16c-4.71-5.59-17-18.19-35.56-24-24.22-7.58-49.2-5.62-49.2-5.62L38.67,77.59l9,5.69H109Z" transform="translate(-25.18 -20.3)"/><polygon class="cls-5" points="91.77 105.79 140.4 124.23 152.75 72.12 147 62.98 85.77 62.98 91.77 105.79"/><polygon class="cls-6" points="29.14 124.23 77.77 105.79 83.8 62.98 22.54 62.98 16.78 72.12 29.14 124.23"/><g class="cls-7"><path class="cls-8" d="M181.64,45.57c-.59.56-2.31,2.08-4.69,4.19C165.89,59.54,140,82.44,132.22,93.08a41.16,41.16,0,0,0-5.24,8.81c-.68-.45-1.35-.91-2-1.39.1-.54.22-1.08.37-1.62,1.06-3.82,3.42-7.3,6.62-11.35,8-10.08,33.33-31.33,44.16-40.4,2.33-2,3.88-3.26,4.45-3.77a138,138,0,0,0,11.5-11.62L192.5,30A134.87,134.87,0,0,1,180,42.74c-.56.51-2.19,1.87-4.43,3.75C164.76,55.58,139.37,76.87,131.33,87c-3.27,4.13-5.67,7.69-6.77,11.64-.12.42-.22.85-.31,1.27-.48-.39-.94-.8-1.39-1.22a19.82,19.82,0,0,1,1-5.86c1.23-3.82,3.78-7.3,7.24-11.35,8.13-9.52,33-29.17,43.65-37.56,2.22-1.76,3.69-2.92,4.25-3.39a140.5,140.5,0,0,0,14.3-13.83l.41-1.7a140.2,140.2,0,0,1-15.24,14.9c-.55.46-2.1,1.68-4.24,3.37-10.64,8.4-35.58,28.09-43.76,37.67-3.52,4.13-6.13,7.69-7.4,11.64a21.15,21.15,0,0,0-1,5.33c-.27-.29-.53-.59-.79-.89a21,21,0,0,1,1-10.22c1.42-3.86,4.17-7.33,7.87-11.35,8.16-8.88,32.67-27,43.13-34.7,2-1.51,3.51-2.59,4.06-3a147.53,147.53,0,0,0,17-15.48l.39-1.65a146.29,146.29,0,0,1-17.88,16.48c-.54.43-2,1.51-4,3-10.49,7.74-35,25.87-43.25,34.81-3.77,4.09-6.57,7.64-8,11.63a21.55,21.55,0,0,0-1.23,9.28c-.07-.1-.14-.2-.2-.3-1.36-5.62-1.13-10.31.67-14.73,1.71-4.17,5.09-7.92,8.49-11.36,9.69-9.78,21.44-17.58,32.82-25.13.1-.08,10.49-7.07,13.66-9.37a166,166,0,0,0,17.41-14.5L192,20.38a165,165,0,0,1-16.75,13.88c-3.16,2.29-13.53,9.28-13.64,9.36C150.2,51.18,138.41,59,128.66,68.85c-3.46,3.49-6.9,7.32-8.67,11.63a22.53,22.53,0,0,0-1.36,11.83c-1.9-7-1.69-12.48.6-17.55,2-4.33,5.71-8.17,9.11-11.36,7.92-7.43,32.79-23.09,42.16-29,1.81-1.15,3.09-2,3.61-2.29a182.35,182.35,0,0,0,15.81-11.81l-1.26,0a181.84,181.84,0,0,1-15,11.14c-.51.34-1.79,1.14-3.59,2.28-9.39,5.9-34.3,21.59-42.29,29.08-3.46,3.24-7.27,7.16-9.3,11.62a23.36,23.36,0,0,0-1.6,13.63c-2.13-7.89-1.87-13.91.82-19.32,1.78-3.56,4.78-7.06,9.74-11.36,7.7-6.69,32.37-20.79,41.66-26.1,1.7-1,2.89-1.65,3.39-1.95,4.48-2.68,9.05-5.67,13.77-9h-1.46c-4.36,3.06-8.59,5.82-12.73,8.3-.5.3-1.69,1-3.38,1.94-9.31,5.32-34,19.45-41.79,26.19-5,4.38-8.11,8-9.94,11.62-3,6.08-3.11,12.87-.27,22a20.71,20.71,0,0,0,1.66,3.91c.17.52.34,1,.52,1.58A21.24,21.24,0,0,0,120.22,99c.25.78.52,1.56.82,2.37s.56,1.34.88,2c.37,1.13.81,2.3,1.31,3.51l.18.4c.38,1.19.84,2.42,1.38,3.68a34.31,34.31,0,0,0,1.42,3.94,34.14,34.14,0,0,0,3.59,8.48c2.59,4.52,6.45,8.18,10.45,11.62l2.31.87c-4.56-3.82-9.14-7.83-12-12.9-.44-.76-.83-1.5-1.2-2.23,3.19,4.63,7.65,8.07,12.35,11.69,2.37,1.82,4.82,3.71,7.06,5.75l.05,0,2,.78c-.5-.48-1-1-1.54-1.44-2.26-2.07-4.72-4-7.13-5.82-5.52-4.24-10.73-8.25-13.81-14.25l-.51-1c3.22,4.42,7.68,7.6,12.36,10.9,2.4,1.71,4.89,3.47,7.17,5.41a77,77,0,0,1,8.35,8.08l1.58.6a71.88,71.88,0,0,0-9.39-9.31c-2.32-2-4.82-3.74-7.24-5.45-5.59-4-10.89-7.72-14-13.68,0-.19-.07-.38-.1-.57,3.23,4,7.58,6.86,12.12,9.82,2.45,1.6,5,3.25,7.32,5.11a72.51,72.51,0,0,1,12.48,12.1c.82,1.08,1.57,2.18,2.25,3.28l1.24.47a41.37,41.37,0,0,0-2.84-4.25,72.76,72.76,0,0,0-12.62-12.25c-2.36-1.88-4.91-3.54-7.4-5.16-4.86-3.17-9.5-6.21-12.71-10.71,0-.47-.05-.94-.05-1.41,3.06,3,6.84,5.3,10.74,7.65a88.73,88.73,0,0,1,7.54,4.88A83.28,83.28,0,0,1,158,133.85a37.79,37.79,0,0,1,6.45,10.3l1.05.39a38.26,38.26,0,0,0-6.87-11.23,84.28,84.28,0,0,0-13.5-12,88.71,88.71,0,0,0-7.61-4.93c-4.09-2.46-8-4.84-11.13-8.09,0-.64.12-1.28.22-1.92a70,70,0,0,0,8.92,5.55c1.51.84,3,1.78,4.51,2.69,1.08.67,2.16,1.33,3.26,2a69.16,69.16,0,0,1,14.22,11.67,37.81,37.81,0,0,1,8.73,13.62l.35-1.45a39.58,39.58,0,0,0-8.48-12.74,70.3,70.3,0,0,0-14.41-11.82c-1.08-.64-2.16-1.3-3.23-2-1.49-.92-3-1.87-4.55-2.71a65.77,65.77,0,0,1-9.15-5.76c0-.17.07-.34.11-.51a18,18,0,0,1,.52-1.77c2.06,1.25,4.25,2.38,6.48,3.53s4.29,2.33,6.38,3.54l1.65,1A77.33,77.33,0,0,1,157,122.62c5,4.74,8.4,9.58,10.29,14.69l.34-1.41A41.2,41.2,0,0,0,157.61,122a77.87,77.87,0,0,0-15.28-11.58l-1.65-1c-2.1-1.21-4.27-2.46-6.42-3.56s-4.49-2.3-6.56-3.58a39.15,39.15,0,0,1,5.19-8.78C140.63,83,166.46,60.14,177.5,50.38c2.48-2.19,4.11-3.64,4.71-4.21,2.68-2.56,5.63-5.57,8.59-9l.41-1.76A133.67,133.67,0,0,1,181.64,45.57Zm-59.8,54.53c-.12-.52-.24-1-.33-1.54.16.17.34.34.51.51,0,.45,0,.9,0,1.36Zm1.67,4.43c-.09-.42-.18-.84-.26-1.26.18.2.36.39.55.58,0,.39,0,.77,0,1.16Zm.34-1.84c-.29-.31-.57-.64-.84-1-.08-.63-.12-1.25-.14-1.86.39.34.79.67,1.2,1C124,101.46,123.9,102.08,123.85,102.69Zm1.67,6.82c-.14-.24-.28-.47-.42-.72s-.12-.6-.17-.89l.62.69C125.53,108.9,125.52,109.2,125.52,109.51Zm.11-2.08c-.31-.36-.62-.74-.91-1.12-.06-.55-.09-1.1-.1-1.64.41.38.82.74,1.25,1.09C125.77,106.32,125.69,106.87,125.63,107.43Zm.45-2.71a.43.43,0,0,1,0,.11c-.49-.42-1-.86-1.43-1.32a20.82,20.82,0,0,1,.2-2.09c.6.44,1.23.86,1.87,1.27A20.65,20.65,0,0,0,126.08,104.72Z" transform="translate(-25.18 -20.3)"/><path class="cls-8" d="M93,56.74C85.25,50,60.52,35.87,51.21,30.55c-1.68-1-2.87-1.64-3.37-1.94-4.15-2.48-8.37-5.24-12.73-8.3H33.64c4.73,3.35,9.3,6.34,13.77,9,.5.3,1.7,1,3.39,1.95,9.29,5.31,34,19.41,41.67,26.1,5,4.3,8,7.8,9.73,11.36,2.69,5.41,3,11.43.83,19.32a23.28,23.28,0,0,0-1.61-13.63c-2-4.46-5.84-8.38-9.3-11.62-8-7.49-32.9-23.18-42.28-29.08-1.81-1.14-3.08-1.94-3.59-2.28a181.84,181.84,0,0,1-15-11.14l-1.27,0A182.49,182.49,0,0,0,45.79,32.13c.52.34,1.79,1.14,3.61,2.29,9.36,5.89,34.23,21.55,42.16,29,3.4,3.19,7.14,7,9.11,11.36,2.29,5.07,2.49,10.58.59,17.55A22.43,22.43,0,0,0,99.9,80.48c-1.77-4.31-5.21-8.14-8.67-11.63C81.49,59,69.7,51.18,58.29,43.61c-.1-.07-10.48-7.06-13.64-9.35A165,165,0,0,1,27.9,20.38l-1.14.05a165,165,0,0,0,17.41,14.5c3.17,2.3,13.55,9.29,13.67,9.38C69.21,51.85,81,59.65,90.65,69.43c3.39,3.44,6.77,7.19,8.48,11.36,1.81,4.42,2,9.11.68,14.73l-.21.3a21.55,21.55,0,0,0-1.22-9.28c-1.46-4-4.27-7.54-8-11.63C82.13,66,57.58,47.84,47.09,40.1c-2-1.5-3.49-2.58-4-3A145.56,145.56,0,0,1,25.18,20.61l.39,1.65a147.53,147.53,0,0,0,17,15.48c.55.43,2,1.52,4.05,3,10.47,7.73,35,25.83,43.14,34.71,3.7,4,6.45,7.49,7.86,11.35a21.15,21.15,0,0,1,1,10.22c-.26.3-.52.6-.8.89a21.14,21.14,0,0,0-1-5.33C95.58,88.65,93,85.09,89.45,81c-8.18-9.58-33.11-29.27-43.76-37.67-2.14-1.69-3.68-2.91-4.23-3.37A139.48,139.48,0,0,1,26.22,25l.4,1.71a141.59,141.59,0,0,0,14.3,13.83c.57.47,2,1.63,4.26,3.39C55.81,52.33,80.7,72,88.83,81.5c3.45,4,6,7.53,7.24,11.35a20.49,20.49,0,0,1,1,5.86c-.45.42-.92.83-1.4,1.22-.09-.42-.19-.85-.31-1.27-1.1-4-3.5-7.51-6.77-11.64-8-10.15-33.43-31.44-44.27-40.53-2.25-1.88-3.87-3.24-4.43-3.75A133.65,133.65,0,0,1,27.4,30l.41,1.74A138,138,0,0,0,39.3,43.36c.58.51,2.12,1.81,4.46,3.77,10.82,9.07,36.17,30.32,44.15,40.4,3.21,4,5.56,7.53,6.63,11.35.15.54.27,1.08.37,1.62-.64.48-1.31.94-2,1.39a40.35,40.35,0,0,0-5.24-8.81C79.88,82.44,54,59.54,43,49.76c-2.39-2.11-4.11-3.63-4.7-4.19a137.8,137.8,0,0,1-9.57-10.12l.42,1.76c3,3.39,5.9,6.4,8.58,9,.6.57,2.24,2,4.72,4.21C53.43,60.14,79.27,83,87,93.57a39.53,39.53,0,0,1,5.19,8.78c-2.08,1.28-4.3,2.42-6.57,3.58s-4.31,2.35-6.41,3.56l-1.66,1A78.12,78.12,0,0,0,62.29,122,41.06,41.06,0,0,0,52.23,135.9l.33,1.41c1.9-5.11,5.3-10,10.3-14.69A77.28,77.28,0,0,1,78,111.16l1.66-1c2.09-1.21,4.25-2.46,6.38-3.55s4.42-2.27,6.47-3.52c.2.58.38,1.17.53,1.77,0,.17.07.34.1.51A64.62,64.62,0,0,1,84,111.18c-1.52.84-3.06,1.79-4.54,2.71-1.07.66-2.15,1.32-3.24,2a70.22,70.22,0,0,0-14.4,11.82,39.42,39.42,0,0,0-8.48,12.74l.34,1.45a37.85,37.85,0,0,1,8.74-13.62A68.9,68.9,0,0,1,76.6,116.57c1.09-.65,2.18-1.31,3.25-2,1.48-.91,3-1.85,4.52-2.69a69.15,69.15,0,0,0,8.91-5.55,17.91,17.91,0,0,1,.22,1.92c-3.09,3.25-7,5.63-11.12,8.09a88.71,88.71,0,0,0-7.61,4.93,83.86,83.86,0,0,0-13.5,12,38.05,38.05,0,0,0-6.87,11.23l1-.39a37.83,37.83,0,0,1,6.46-10.3A83.67,83.67,0,0,1,75.26,122c2.42-1.8,5-3.37,7.54-4.88,3.91-2.35,7.68-4.63,10.74-7.65,0,.47,0,.94,0,1.41-3.22,4.5-7.86,7.54-12.74,10.72-2.46,1.61-5,3.27-7.38,5.15A73.47,73.47,0,0,0,60.76,139a39.69,39.69,0,0,0-2.83,4.25l1.24-.47c.68-1.1,1.43-2.2,2.25-3.28a72.15,72.15,0,0,1,12.48-12.1c2.33-1.86,4.86-3.51,7.34-5.12,4.52-3,8.87-5.8,12.09-9.81,0,.19-.06.38-.09.57-3.11,6-8.41,9.71-14,13.68-2.42,1.71-4.92,3.48-7.23,5.45a72.66,72.66,0,0,0-9.4,9.31l1.59-.6a75.92,75.92,0,0,1,8.34-8.08c2.29-1.94,4.78-3.7,7.18-5.41,4.67-3.31,9.14-6.48,12.35-10.9-.16.34-.33.68-.51,1-3.08,6-8.29,10-13.82,14.26-2.38,1.84-4.85,3.74-7.12,5.81-.53.48-1,1-1.54,1.44l2-.78.06,0c2.24-2.05,4.7-3.94,7.08-5.77,4.68-3.6,9.14-7,12.32-11.67-.36.73-.76,1.47-1.19,2.23-2.9,5.06-7.48,9.07-12,12.9l2.31-.87c4-3.43,7.87-7.1,10.45-11.62a33.72,33.72,0,0,0,3.6-8.49,34.18,34.18,0,0,0,1.42-3.93c.54-1.27,1-2.49,1.37-3.68.06-.13.13-.26.18-.4.51-1.21.94-2.38,1.32-3.52.31-.63.61-1.28.87-2s.57-1.59.83-2.37A22.36,22.36,0,0,0,101,95.86c.18-.53.35-1.06.51-1.58a21.4,21.4,0,0,0,1.67-3.91c2.83-9.14,2.75-15.93-.28-22C101.11,64.7,98.05,61.12,93,56.74Zm.8,48a18.2,18.2,0,0,0-.61-2c.64-.41,1.26-.83,1.87-1.27a20.8,20.8,0,0,1,.19,2.09c-.46.46-.93.9-1.43,1.32A.43.43,0,0,0,93.81,104.72Zm1,4.07c-.14.25-.28.48-.43.72,0-.31,0-.61,0-.92l.61-.69C94.91,108.19,94.86,108.49,94.8,108.79Zm.38-2.48c-.3.38-.6.76-.92,1.12-.06-.56-.13-1.11-.23-1.67.42-.35.84-.71,1.24-1.09C95.26,105.21,95.23,105.76,95.18,106.31Zm1.2-1.78-.29.48c0-.39,0-.77,0-1.16.18-.19.37-.38.54-.57C96.57,103.69,96.48,104.11,96.38,104.53Zm.51-2.82c-.27.34-.56.67-.85,1-.05-.61-.12-1.23-.22-1.84.41-.33.82-.66,1.21-1C97,100.46,97,101.08,96.89,101.71Zm1.16-1.61-.22.33c0-.46,0-.91,0-1.36l.52-.51C98.29,99.06,98.18,99.58,98.05,100.1Z" transform="translate(-25.18 -20.3)"/></g></svg>